HIERARCHY
ROOT Root
{
  OFFSET 0.0 0.0 0.0
  CHANNELS 6 Xposition Yposition Zposition Zrotation Yrotation Xrotation
  JOINT Hips
  {
    OFFSET 0.0 100.0 0.0
    CHANNELS 6 Xposition Yposition Zposition Zrotation Yrotation Xrotation
    JOINT Spine1
    {
      OFFSET -0.013727 5.003763 -0.053727
      CHANNELS 3 Zrotation Yrotation Xrotation
      JOINT Spine2
      {
        OFFSET -0.0 7.125301 -0.029825
        CHANNELS 3 Zrotation Yrotation Xrotation
        JOINT Chest
        {
          OFFSET -1e-06 7.550063 -0.815971
          CHANNELS 3 Zrotation Yrotation Xrotation
          JOINT Neck1
          {
            OFFSET -0.181677 26.311295 -0.553348
            CHANNELS 3 Zrotation Yrotation Xrotation
            JOINT Neck2
            {
              OFFSET -3e-06 7.709397 2.302585
              CHANNELS 3 Zrotation Yrotation Xrotation
              JOINT Head
              {
                OFFSET -5e-06 6.128916 1.953709
                CHANNELS 3 Zrotation Yrotation Xrotation
                JOINT HeadEnd
                {
                  OFFSET 0.003598 16.065403 -1.835379
                  CHANNELS 3 Zrotation Yrotation Xrotation
                }
                JOINT Jaw
                {
                  OFFSET 0.002637 0.475592 3.094941
                  CHANNELS 3 Zrotation Yrotation Xrotation
                }
                JOINT LeftEye
                {
                  OFFSET 3.206381 5.380205 7.586883
                  CHANNELS 3 Zrotation Yrotation Xrotation
                }
                JOINT RightEye
                {
                  OFFSET -3.22244 5.361869 7.558234
                  CHANNELS 3 Zrotation Yrotation Xrotation
                }
              }
            }
          }
          JOINT LeftShoulder
          {
            OFFSET 1.621652 23.237164 5.113413
            CHANNELS 3 Zrotation Yrotation Xrotation
            JOINT LeftArm
            {
              OFFSET 14.919846 2e-06 -5.502326
              CHANNELS 3 Zrotation Yrotation Xrotation
              JOINT LeftForeArm
              {
                OFFSET 28.739307 0.0 -0.002588
                CHANNELS 3 Zrotation Yrotation Xrotation
                JOINT LeftHand
                {
                  OFFSET 27.093981 -1e-06 0.002609
                  CHANNELS 3 Zrotation Yrotation Xrotation
                  JOINT LeftHandThumb1
                  {
                    OFFSET 2.276482 -1.392045 3.191413
                    CHANNELS 3 Zrotation Yrotation Xrotation
                    JOINT LeftHandThumb2
                    {
                      OFFSET 4.012836 -1.828127 1.641654
                      CHANNELS 3 Zrotation Yrotation Xrotation
                      JOINT LeftHandThumb3
                      {
                        OFFSET 2.798515 0.0 -3e-06
                        CHANNELS 3 Zrotation Yrotation Xrotation
                        JOINT LeftHandThumbEnd
                        {
                          OFFSET 3.180793 -4e-06 4e-06
                          CHANNELS 3 Zrotation Yrotation Xrotation
                        }
                      }
                    }
                  }
                  JOINT LeftHandIndex1
                  {
                    OFFSET 3.247555 -0.531998 2.296169
                    CHANNELS 3 Zrotation Yrotation Xrotation
                    JOINT LeftHandIndex2
                    {
                      OFFSET 6.364578 0.01206 0.1786
                      CHANNELS 3 Zrotation Yrotation Xrotation
                      JOINT LeftHandIndex3
                      {
                        OFFSET 3.662364 0.0 0.0
                        CHANNELS 3 Zrotation Yrotation Xrotation
                        JOINT LeftHandIndex4
                        {
                          OFFSET 2.329242 4e-06 4e-06
                          CHANNELS 3 Zrotation Yrotation Xrotation
                          JOINT LeftHandIndexEnd
                          {
                            OFFSET 2.759615 -0.180537 -0.113024
                            CHANNELS 3 Zrotation Yrotation Xrotation
                          }
                        }
                      }
                    }
                  }
                  JOINT LeftHandMiddle1
                  {
                    OFFSET 3.163495 0.240981 1.000332
                    CHANNELS 3 Zrotation Yrotation Xrotation
                    JOINT LeftHandMiddle2
                    {
                      OFFSET 6.19078 -0.259278 -1.002548
                      CHANNELS 3 Zrotation Yrotation Xrotation
                      JOINT LeftHandMiddle3
                      {
                        OFFSET 4.35652 -4e-06 -1e-06
                        CHANNELS 3 Zrotation Yrotation Xrotation
                        JOINT LeftHandMiddle4
                        {
                          OFFSET 2.996877 -8e-06 0.0
                          CHANNELS 3 Zrotation Yrotation Xrotation
                          JOINT LeftHandMiddleEnd
                          {
                            OFFSET 2.304287 -0.294569 -0.031741
                            CHANNELS 3 Zrotation Yrotation Xrotation
                          }
                        }
                      }
                    }
                  }
                  JOINT LeftHandRing1
                  {
                    OFFSET 2.882643 -0.053652 -0.322543
                    CHANNELS 3 Zrotation Yrotation Xrotation
                    JOINT LeftHandRing2
                    {
                      OFFSET 5.854541 -0.486202 -1.373841
                      CHANNELS 3 Zrotation Yrotation Xrotation
                      JOINT LeftHandRing3
                      {
                        OFFSET 4.350578 0.0 3e-06
                        CHANNELS 3 Zrotation Yrotation Xrotation
                        JOINT LeftHandRing4
                        {
                          OFFSET 2.651321 7e-06 2e-06
                          CHANNELS 3 Zrotation Yrotation Xrotation
                          JOINT LeftHandRingEnd
                          {
                            OFFSET 1.936105 0.077687 -7.1e-05
                            CHANNELS 3 Zrotation Yrotation Xrotation
                          }
                        }
                      }
                    }
                  }
                  JOINT LeftHandPinky1
                  {
                    OFFSET 2.8655 -0.310005 -1.600378
                    CHANNELS 3 Zrotation Yrotation Xrotation
                    JOINT LeftHandPinky2
                    {
                      OFFSET 5.087849 -1.331141 -1.77123
                      CHANNELS 3 Zrotation Yrotation Xrotation
                      JOINT LeftHandPinky3
                      {
                        OFFSET 3.070974 4e-06 0.0
                        CHANNELS 3 Zrotation Yrotation Xrotation
                        JOINT LeftHandPinky4
                        {
                          OFFSET 1.549672 0.0 1e-06
                          CHANNELS 3 Zrotation Yrotation Xrotation
                          JOINT LeftHandPinkyEnd
                          {
                            OFFSET 1.944893 -0.157802 0.057219
                            CHANNELS 3 Zrotation Yrotation Xrotation
                          }
                        }
                      }
                    }
                  }
                }
              }
            }
          }
          JOINT RightShoulder
          {
            OFFSET -1.380118 23.180309 5.214158
            CHANNELS 3 Zrotation Yrotation Xrotation
            JOINT RightArm
            {
              OFFSET -15.037196 1.2e-05 -5.545604
              CHANNELS 3 Zrotation Yrotation Xrotation
              JOINT RightForeArm
              {
                OFFSET -28.736639 2e-06 -0.002597
                CHANNELS 3 Zrotation Yrotation Xrotation
                JOINT RightHand
                {
                  OFFSET -27.133619 -0.0 0.002613
                  CHANNELS 3 Zrotation Yrotation Xrotation
                  JOINT RightHandThumb1
                  {
                    OFFSET -2.274032 -1.383988 3.163127
                    CHANNELS 3 Zrotation Yrotation Xrotation
                    JOINT RightHandThumb2
                    {
                      OFFSET -4.011429 -1.827466 1.640914
                      CHANNELS 3 Zrotation Yrotation Xrotation
                      JOINT RightHandThumb3
                      {
                        OFFSET -2.794935 -4e-06 -3e-06
                        CHANNELS 3 Zrotation Yrotation Xrotation
                        JOINT RightHandThumbEnd
                        {
                          OFFSET -3.183852 4e-06 1e-06
                          CHANNELS 3 Zrotation Yrotation Xrotation
                        }
                      }
                    }
                  }
                  JOINT RightHandIndex1
                  {
                    OFFSET -3.253266 -0.520057 2.282866
                    CHANNELS 3 Zrotation Yrotation Xrotation
                    JOINT RightHandIndex2
                    {
                      OFFSET -6.341917 0.012471 0.178266
                      CHANNELS 3 Zrotation Yrotation Xrotation
                      JOINT RightHandIndex3
                      {
                        OFFSET -3.654871 -8e-06 -0.0
                        CHANNELS 3 Zrotation Yrotation Xrotation
                        JOINT RightHandIndex4
                        {
                          OFFSET -2.327586 0.0 1e-06
                          CHANNELS 3 Zrotation Yrotation Xrotation
                          JOINT RightHandIndexEnd
                          {
                            OFFSET -2.76179 -0.180656 -0.113078
                            CHANNELS 3 Zrotation Yrotation Xrotation
                          }
                        }
                      }
                    }
                  }
                  JOINT RightHandMiddle1
                  {
                    OFFSET -3.168106 0.246593 1.00103
                    CHANNELS 3 Zrotation Yrotation Xrotation
                    JOINT RightHandMiddle2
                    {
                      OFFSET -6.180828 -0.258836 -1.000895
                      CHANNELS 3 Zrotation Yrotation Xrotation
                      JOINT RightHandMiddle3
                      {
                        OFFSET -4.348901 0.0 -0.0
                        CHANNELS 3 Zrotation Yrotation Xrotation
                        JOINT RightHandMiddle4
                        {
                          OFFSET -3.00024 -4e-06 -2e-06
                          CHANNELS 3 Zrotation Yrotation Xrotation
                          JOINT RightHandMiddleEnd
                          {
                            OFFSET -2.30252 -0.29437 -0.031706
                            CHANNELS 3 Zrotation Yrotation Xrotation
                          }
                        }
                      }
                    }
                  }
                  JOINT RightHandRing1
                  {
                    OFFSET -2.88569 -0.067952 -0.308858
                    CHANNELS 3 Zrotation Yrotation Xrotation
                    JOINT RightHandRing2
                    {
                      OFFSET -5.854198 -0.48613 -1.373731
                      CHANNELS 3 Zrotation Yrotation Xrotation
                      JOINT RightHandRing3
                      {
                        OFFSET -4.33881 -4e-06 -0.0
                        CHANNELS 3 Zrotation Yrotation Xrotation
                        JOINT RightHandRing4
                        {
                          OFFSET -2.654903 -4e-06 4e-06
                          CHANNELS 3 Zrotation Yrotation Xrotation
                          JOINT RightHandRingEnd
                          {
                            OFFSET -1.933568 0.077527 -5.2e-05
                            CHANNELS 3 Zrotation Yrotation Xrotation
                          }
                        }
                      }
                    }
                  }
                  JOINT RightHandPinky1
                  {
                    OFFSET -2.866425 -0.342796 -1.584145
                    CHANNELS 3 Zrotation Yrotation Xrotation
                    JOINT RightHandPinky2
                    {
                      OFFSET -5.091371 -1.332055 -1.772385
                      CHANNELS 3 Zrotation Yrotation Xrotation
                      JOINT RightHandPinky3
                      {
                        OFFSET -3.062664 -4e-06 1e-06
                        CHANNELS 3 Zrotation Yrotation Xrotation
                        JOINT RightHandPinky4
                        {
                          OFFSET -1.546529 4e-06 -2e-06
                          CHANNELS 3 Zrotation Yrotation Xrotation
                          JOINT RightHandPinkyEnd
                          {
                            OFFSET -1.945119 -0.157718 0.057211
                            CHANNELS 3 Zrotation Yrotation Xrotation
                          }
                        }
                      }
                    }
                  }
                }
              }
            }
          }
        }
      }
    }
    JOINT LeftLeg
    {
      OFFSET 10.043214 -8.434526 2.595655
      CHANNELS 3 Zrotation Yrotation Xrotation
      JOINT LeftShin
      {
        OFFSET -1e-06 -43.221752 -0.802913
        CHANNELS 3 Zrotation Yrotation Xrotation
        JOINT LeftFoot
        {
          OFFSET 1e-06 -42.155094 -3.481523
          CHANNELS 3 Zrotation Yrotation Xrotation
          JOINT LeftToeBase
          {
            OFFSET 0.0 -5.059472 13.231529
            CHANNELS 3 Zrotation Yrotation Xrotation
            JOINT LeftToeEnd
            {
              OFFSET -0.009607 -1.647619 6.513017
              CHANNELS 3 Zrotation Yrotation Xrotation
            }
          }
        }
      }
    }
    JOINT RightLeg
    {
      OFFSET -10.047278 -8.29526 2.620317
      CHANNELS 3 Zrotation Yrotation Xrotation
      JOINT RightShin
      {
        OFFSET 1e-06 -43.362206 -0.805556
        CHANNELS 3 Zrotation Yrotation Xrotation
        JOINT RightFoot
        {
          OFFSET 2e-06 -42.117393 -3.478398
          CHANNELS 3 Zrotation Yrotation Xrotation
          JOINT RightToeBase
          {
            OFFSET -0.0 -5.079609 13.284196
            CHANNELS 3 Zrotation Yrotation Xrotation
            JOINT RightToeEnd
            {
              OFFSET 0.009532 -1.634378 6.460591
              CHANNELS 3 Zrotation Yrotation Xrotation
            }
          }
        }
      }
    }
  }
}
MOTION
Frames: 4
Frame Time: 0.03333333333333333
0.0 0.0 0.0 0.0 -0.0 0.0 0.899917 96.98201 -5.748919 10.86865 0.547681 0.835728 -7.015225 -0.679753 -3.786152 -2.066839 -0.900837 -6.084421 -3.408586 -2.259297 12.657862 3.70336 1.340887 12.571806 -2.732018 -5.860411 -3.378954 -0.840187 -6.134207 -4.441229 7.7e-05 -2.2e-05 6e-06 0.031031 -0.018389 -0.011996 0.776795 -3.736847 -10.633866 -0.720222 3.695352 -10.657578 -18.290419 -6.051145 13.286229 -53.485668 -12.339866 21.701365 0.260582 -23.068876 -0.138131 -0.625666 -0.18711 -1.444492 -5.882086 9.861376 0.702511 -10.936904 -0.360663 7.156168 2.2e-05 8.774765 -1e-06 -16.46735 18.872654 6.182521 -1.844021 2.498497 -2.507262 -10.16353 4.678882 4.621118 -20.975904 -4.9e-05 2.8e-05 -21.226154 2.451602 -3.593913 0.0 -5e-06 -1e-06 -1.362646 2.240726 -0.746315 -21.334816 0.58493 3.008329 -13.821135 -2.8e-05 2.6e-05 -23.887033 -0.249144 -0.839376 -60.793602 2.553192 -0.902574 -0.293981 1.679593 0.833261 -14.218172 0.093282 1.300582 -34.211849 -0.287609 0.967241 -20.03315 0.96453 1.212897 3e-06 2e-06 -0.0 -3.44027 0.788083 0.501682 -15.928206 -3.16717 2.999685 -6.338791 -1.4e-05 1.1e-05 -18.123329 3.648102 -4.905597 -3e-06 2e-06 1e-06 19.772642 7.642098 13.040527 61.820385 7.73506 4.581241 -0.29488 24.345039 -0.123558 2.92257 6.111885 -8.847576 2.243524 -5.255173 -3.180207 14.282912 -0.826534 6.952499 -1.4e-05 -12.690539 1.5e-05 16.833973 -17.933926 2.341815 1.665659 -1.955918 -2.878293 4.727779 -4.170557 4.993925 11.020495 1e-05 -3e-06 12.109027 -3.735669 -2.866784 2e-06 0.0 -1e-06 1.291971 -1.928495 -1.498079 14.800077 0.567431 3.865596 14.242512 -1.341714 -6.660645 19.631918 0.143969 -0.648241 49.799206 -0.56474 -6.047712 0.353011 -1.511083 -0.031931 20.222725 3.684239 2.316605 18.787216 1e-05 2e-06 10.751618 -0.479869 1.397913 -0.0 -1e-06 -3e-06 3.273743 0.306048 -0.580083 21.486771 11.830236 2.26608 8.162903 1e-06 4e-06 18.399036 -3.798957 -4.940547 3e-06 -3e-06 -3e-06 -16.878712 8.514688 -4.355899 0.100173 0.365949 2.718699 2.367083 -2.118875 -2.857391 1.579324 -1.890023 -1.923729 -0.0 0.0 -1e-06 -19.56851 4.986776 -25.521021 0.112391 0.281225 74.105331 5.030737 0.362876 3.688038 -1.469701 0.947668 -4.057985 0.0 -0.0 -0.0 
0.0 0.0 0.0 0.0 -0.0 0.0 2.056035 97.088051 -3.592704 10.073803 2.489005 0.711355 -6.62838 -0.786205 -3.458214 -1.892037 -1.191622 -5.875789 -3.063224 -2.916759 12.634301 4.108058 1.060166 12.360193 -2.950499 -6.552188 -3.284659 -0.983754 -6.821075 -4.382086 7.7e-05 -2.2e-05 6e-06 0.029063 -0.023883 -0.042386 0.791907 -3.741946 -10.672145 -0.737937 3.686952 -10.698468 -17.880497 -6.255842 13.309022 -53.424255 -13.396569 21.094915 0.257061 -24.240044 -0.175342 -0.575419 0.245364 -1.793482 -5.882086 9.861292 0.702678 -10.936849 -0.360524 7.156271 1e-06 8.774833 7e-06 -16.211761 18.777275 6.251736 -1.844031 2.4985 -2.507283 -10.163592 4.678944 4.6211 -20.976007 -6e-06 -3e-06 -21.226299 2.451691 -3.594023 -2e-06 -4e-06 -0.0 -1.362683 2.240801 -0.746323 -21.334896 0.584894 3.008307 -13.821205 -4e-06 1e-06 -23.887201 -0.249095 -0.8395 -60.731537 2.527619 -0.954124 -0.294027 1.679695 0.833256 -14.218196 0.0932 1.300562 -34.212048 -0.28756 0.967168 -20.033243 0.964543 1.212844 4e-06 3e-06 2e-06 -3.440391 0.788247 0.501651 -15.928167 -3.167333 2.999694 -6.338821 -0.0 -0.0 -18.123465 3.648175 -4.905694 -5e-06 -3e-06 -1e-06 19.711599 7.312978 13.062601 61.170132 7.471686 3.457675 0.260518 26.565037 0.058351 2.668219 8.143384 -9.790534 2.243584 -5.254927 -3.179854 14.282871 -0.826678 6.952661 -1.1e-05 -12.690644 1e-05 16.906328 -17.781366 2.274522 1.665666 -1.955921 -2.878316 4.727803 -4.170597 4.993902 11.020556 9e-06 6e-06 12.109118 -3.735722 -2.866826 -1e-06 1e-06 -0.0 1.291985 -1.928569 -1.498113 14.800155 0.567498 3.865606 14.242609 -1.341726 -6.66069 19.632116 0.143944 -0.648254 49.855541 -0.512893 -6.018496 0.353029 -1.511179 -0.031962 20.222818 3.684362 2.316633 18.787338 0.0 2.6e-05 10.751674 -0.479882 1.397943 1e-06 -0.0 -0.0 3.273826 0.305911 -0.58015 21.48682 11.830449 2.266141 8.162957 -4e-06 1.4e-05 18.399214 -3.798996 -4.940588 3e-06 1e-06 -4e-06 -16.48666 8.163023 -2.205704 0.019443 0.271464 2.661928 2.823817 -3.623253 -3.912548 1.585025 -1.892609 -1.562725 0.0 0.0 2e-06 -17.092077 4.369188 -28.635414 0.04668 0.149446 72.648186 5.701559 1.003458 1.345044 -1.504838 0.980576 -3.662096 0.0 -0.0 -1e-06 
0.0 0.0 0.0 0.0 -0.0 0.0 3.375439 97.093163 -1.054051 9.195555 4.608896 0.818917 -6.301756 -0.880063 -3.292698 -1.781126 -1.637338 -5.758838 -2.544424 -3.561078 12.640253 4.766786 0.64522 12.092053 -3.0642 -7.123146 -3.275018 -1.32216 -7.594418 -4.156242 7.7e-05 -2.3e-05 6e-06 0.036819 -0.045615 -0.058991 0.797536 -3.7589 -10.701057 -0.726996 3.659631 -10.713774 -17.345591 -6.748221 13.347502 -53.528282 -14.294399 21.18961 0.314061 -25.357895 -0.227023 -0.883795 0.721825 -2.254798 -5.882099 9.861287 0.702521 -10.936858 -0.360571 7.156188 -1.2e-05 8.774843 -2e-06 -16.135414 18.769936 6.274457 -1.844032 2.498506 -2.507276 -10.163614 4.678964 4.621101 -20.976076 2.1e-05 -2e-06 -21.226425 2.451743 -3.594054 3e-06 -7e-06 -4e-06 -1.362694 2.24081 -0.746317 -21.334921 0.584913 3.008326 -13.821252 1.1e-05 -3e-06 -23.887367 -0.249049 -0.839531 -60.766876 2.503555 -0.986016 -0.294041 1.679703 0.833262 -14.218198 0.093203 1.300587 -34.212154 -0.287526 0.967152 -20.03331 0.964555 1.212837 -1e-06 2e-06 -0.0 -3.440416 0.788269 0.501663 -15.92815 -3.167348 2.999713 -6.338841 6e-06 -0.0 -18.123581 3.648213 -4.905715 -3e-06 0.0 -3e-06 20.011711 6.946249 12.995474 60.442074 7.072489 2.080045 0.487359 28.012743 0.169835 2.598674 9.258249 -10.330431 2.243476 -5.254954 -3.180108 14.282812 -0.826648 6.952559 -1.2e-05 -12.69064 -6e-06 16.831579 -17.681383 2.308838 1.665671 -1.955923 -2.878306 4.727808 -4.1706 4.993901 11.020557 1.4e-05 -2e-05 12.109135 -3.735719 -2.866857 2e-06 0.0 -1e-06 1.291992 -1.928573 -1.498102 14.800153 0.567502 3.865591 14.242612 -1.341724 -6.6607 19.632116 0.143989 -0.648299 49.851768 -0.501257 -6.040483 0.353036 -1.511185 -0.031954 20.22282 3.684366 2.316619 18.787323 3.7e-05 -2.3e-05 10.751655 -0.479853 1.397915 -0.0 -1e-06 -0.0 3.273827 0.305904 -0.580149 21.486834 11.830457 2.266155 8.162938 1.1e-05 -1.1e-05 18.399185 -3.798935 -4.940642 3e-06 -2e-06 -2e-06 -15.913036 7.388827 -0.513347 -0.054862 0.232629 2.952271 3.446387 -5.204592 -5.105515 1.603055 -1.84521 -1.159172 0.0 0.0 2e-06 -14.400996 3.847945 -31.563883 -0.01973 0.067531 68.812248 7.099561 1.74504 -0.238881 -1.49534 1.015261 -3.564006 0.0 -0.0 -8e-06 
0.0 0.0 0.0 0.0 -0.0 0.0 4.601019 96.99308 1.497493 8.521856 6.713624 1.106961 -6.152476 -0.957365 -3.258935 -1.757589 -2.110891 -5.715765 -2.070473 -4.126475 12.662249 5.698548 0.132351 11.767179 -3.23399 -7.654926 -3.272642 -1.661192 -8.454442 -3.978171 7.7e-05 -2.3e-05 6e-06 0.045336 -0.076565 -0.060779 0.805233 -3.782538 -10.709553 -0.717068 3.622334 -10.703453 -16.79838 -7.303659 13.431746 -53.643959 -15.27915 21.930868 0.40123 -26.09831 -0.276784 -1.38459 1.10669 -2.407235 -5.882136 9.861163 0.702809 -10.936763 -0.360466 7.156343 -1.1e-05 8.774888 -1e-06 -16.10392 18.753725 6.289472 -1.844042 2.498507 -2.507291 -10.163677 4.678993 4.621073 -20.976225 2e-05 -1.7e-05 -21.226643 2.451752 -3.594133 2e-06 -4e-06 2e-06 -1.36271 2.240854 -0.746342 -21.335032 0.584873 3.008308 -13.821341 1.1e-05 -9e-06 -23.887619 -0.24906 -0.839582 -60.810944 2.501174 -0.966855 -0.294064 1.679763 0.833239 -14.218251 0.093145 1.300566 -34.212429 -0.287541 0.967141 -20.033457 0.964549 1.212838 3e-06 3e-06 1e-06 -3.440491 0.788353 0.501604 -15.928155 -3.167442 2.999734 -6.338882 5e-06 -4e-06 -18.123766 3.648206 -4.905791 -4e-06 2e-06 1e-06 20.553377 6.51395 12.873055 59.871593 6.649421 0.550116 0.461461 28.708679 0.194004 2.62965 9.721857 -10.557212 2.243529 -5.254888 -3.179976 14.282817 -0.826688 6.952608 -5e-06 -12.690672 -5e-06 16.701677 -17.633192 2.353227 1.665672 -1.955922 -2.878315 4.727821 -4.170616 4.993898 11.02059 6e-06 -8e-06 12.109179 -3.735744 -2.866858 2e-06 2e-06 -0.0 1.291999 -1.928596 -1.49811 14.800173 0.567515 3.865599 14.242641 -1.341738 -6.660706 19.63217 0.143952 -0.648298 49.843292 -0.506321 -6.070834 0.353046 -1.51121 -0.031963 20.222851 3.68439 2.316633 18.787374 1.5e-05 -1.1e-05 10.751687 -0.479867 1.397929 3e-06 -1e-06 -3e-06 3.273865 0.305861 -0.580162 21.486835 11.830514 2.266174 8.162968 6e-06 -5e-06 18.399267 -3.798963 -4.940663 3e-06 -2e-06 -3e-06 -15.499854 6.415688 0.76236 -0.087019 0.225173 3.601707 4.215053 -6.671413 -6.441584 1.623482 -1.77997 -0.815699 0.0 0.0 2e-06 -12.087466 3.673031 -33.959591 -0.080966 0.042771 62.730747 8.48326 1.839725 -1.14187 -1.488627 1.087664 -3.423199 -0.0 -1e-06 -5e-06 
